{
  "accessors": [
    {
      "bufferView": 2,
      "componentType": 5126,
      "count": 162,
      "max": [
        0.004999999888241291,
        0.14499999582767487,
        -0.3057760000228882
      ],
      "min": [
        -0.004999999888241291,
        0.13500000536441803,
        -0.315775990486145
      ],
      "type": "VEC3"
    },
    {
      "bufferView": 2,
      "byteOffset": 1944,
      "componentType": 5126,
      "count": 162,
      "max": [
        1.0,
        1.0,
        1.0
      ],
      "min": [
        -1.0,
        -1.0,
        -1.0
      ],
      "type": "VEC3"
    },
    {
      "bufferView": 1,
      "componentType": 5126,
      "count": 162,
      "max": [
        0.8535529971122742,
        0.8535529971122742
      ],
      "min": [
        0.14644700288772583,
        0.14644700288772583
      ],
      "type": "VEC2"
    },
    {
      "bufferView": 0,
      "componentType": 5125,
      "count": 672,
      "type": "SCALAR"
    },
    {
      "bufferView": 2,
      "byteOffset": 3888,
      "componentType": 5126,
      "count": 3600,
      "max": [
        0.1612890064716339,
        0.15727299451828003,
        0.13561999797821045
      ],
      "min": [
        -0.15973299741744995,
        -0.16056600213050842,
        -0.26863300800323486
      ],
      "type": "VEC3"
    },
    {
      "bufferView": 2,
      "byteOffset": 47088,
      "componentType": 5126,
      "count": 3600,
      "max": [
        0.9999948740005493,
        0.9801631569862366,
        0.03340207040309906
      ],
      "min": [
        -0.9999948740005493,
        -0.9999948740005493,
        -0.0
      ],
      "type": "VEC3"
    },
    {
      "bufferView": 1,
      "byteOffset": 1296,
      "componentType": 5126,
      "count": 3600,
      "max": [
        0.998661994934082,
        0.9956949949264526
      ],
      "min": [
        0.0017999999690800905,
        0.008840999566018581
      ],
      "type": "VEC2"
    },
    {
      "bufferView": 0,
      "byteOffset": 2688,
      "componentType": 5125,
      "count": 20076,
      "type": "SCALAR"
    },
    {
      "bufferView": 2,
      "byteOffset": 90288,
      "componentType": 5126,
      "count": 3532,
      "max": [
        0.09157100319862366,
        0.09157100319862366,
        0.39209499955177307
      ],
      "min": [
        -0.09157100319862366,
        -0.09157100319862366,
        0.2797259986400604
      ],
      "type": "VEC3"
    },
    {
      "bufferView": 2,
      "byteOffset": 132672,
      "componentType": 5126,
      "count": 3532,
      "max": [
        1.0,
        1.0,
        1.0
      ],
      "min": [
        -1.0,
        -1.0,
        -1.0
      ],
      "type": "VEC3"
    },
    {
      "bufferView": 1,
      "byteOffset": 30096,
      "componentType": 5126,
      "count": 3532,
      "max": [
        1.0,
        1.0
      ],
      "min": [
        0.0,
        0.0
      ],
      "type": "VEC2"
    },
    {
      "bufferView": 0,
      "byteOffset": 82992,
      "componentType": 5125,
      "count": 15768,
      "type": "SCALAR"
    },
    {
      "bufferView": 2,
      "byteOffset": 175056,
      "componentType": 5126,
      "count": 22914,
      "max": [
        0.06707800179719925,
        0.06707800179719925,
        0.569570004940033
      ],
      "min": [
        -0.06707800179719925,
        -0.06707800179719925,
        0.3897959887981415
      ],
      "type": "VEC3"
    },
    {
      "bufferView": 2,
      "byteOffset": 450024,
      "componentType": 5126,
      "count": 22914,
      "max": [
        1.0,
        1.0,
        1.0
      ],
      "min": [
        -1.0,
        -1.0,
        -1.0
      ],
      "type": "VEC3"
    },
    {
      "bufferView": 1,
      "byteOffset": 58352,
      "componentType": 5126,
      "count": 22914,
      "max": [
        0.6957809925079346,
        0.6957809925079346
      ],
      "min": [
        0.360852986574173,
        0.360852986574173
      ],
      "type": "VEC2"
    },
    {
      "bufferView": 0,
      "byteOffset": 146064,
      "componentType": 5125,
      "count": 129600,
      "type": "SCALAR"
    },
    {
      "bufferView": 2,
      "byteOffset": 724992,
      "componentType": 5126,
      "count": 9664,
      "max": [
        0.1449580043554306,
        0.14432300627231598,
        -0.3057760000228882
      ],
      "min": [
        -0.1449580043554306,
        -0.14483100175857544,
        -0.3157770037651062
      ],
      "type": "VEC3"
    },
    {
      "bufferView": 2,
      "byteOffset": 840960,
      "componentType": 5126,
      "count": 9664,
      "max": [
        0.9999819993972778,
        0.9999819993972778,
        1.0
      ],
      "min": [
        -0.9999819993972778,
        -0.9999819993972778,
        -1.0
      ],
      "type": "VEC3"
    },
    {
      "bufferView": 1,
      "byteOffset": 241664,
      "componentType": 5126,
      "count": 9664,
      "max": [
        1.0,
        1.0
      ],
      "min": [
        0.0,
        0.0
      ],
      "type": "VEC2"
    },
    {
      "bufferView": 0,
      "byteOffset": 664464,
      "componentType": 5125,
      "count": 43008,
      "type": "SCALAR"
    },
    {
      "bufferView": 2,
      "byteOffset": 956928,
      "componentType": 5126,
      "count": 625,
      "max": [
        0.028527000918984413,
        0.028527000918984413,
        0.31284600496292114
      ],
      "min": [
        -0.028527000918984413,
        -0.028527000918984413,
        -0.21778100728988647
      ],
      "type": "VEC3"
    },
    {
      "bufferView": 2,
      "byteOffset": 964428,
      "componentType": 5126,
      "count": 625,
      "max": [
        1.0,
        1.0,
        1.0
      ],
      "min": [
        -1.0,
        -1.0,
        -1.0
      ],
      "type": "VEC3"
    },
    {
      "bufferView": 1,
      "byteOffset": 318976,
      "componentType": 5126,
      "count": 625,
      "max": [
        1.0,
        1.0
      ],
      "min": [
        0.0,
        0.0
      ],
      "type": "VEC2"
    },
    {
      "bufferView": 0,
      "byteOffset": 836496,
      "componentType": 5125,
      "count": 2808,
      "type": "SCALAR"
    },
    {
      "bufferView": 2,
      "byteOffset": 971928,
      "componentType": 5126,
      "count": 65532,
      "max": [
        0.1589909940958023,
        0.1589909940958023,
        0.36083701252937317
      ],
      "min": [
        -0.1589909940958023,
        -0.1589909940958023,
        -0.31515800952911377
      ],
      "type": "VEC3"
    },
    {
      "bufferView": 2,
      "byteOffset": 1758312,
      "componentType": 5126,
      "count": 65532,
      "max": [
        1.0,
        1.0,
        1.0
      ],
      "min": [
        -1.0,
        -1.0,
        -1.0
      ],
      "type": "VEC3"
    },
    {
      "bufferView": 1,
      "byteOffset": 323976,
      "componentType": 5126,
      "count": 65532,
      "max": [
        0.7737950086593628,
        0.7737950086593628
      ],
      "min": [
        0.05900000035762787,
        0.05900000035762787
      ],
      "type": "VEC2"
    },
    {
      "bufferView": 0,
      "byteOffset": 847728,
      "componentType": 5125,
      "count": 366003,
      "type": "SCALAR"
    },
    {
      "bufferView": 2,
      "byteOffset": 2544696,
      "componentType": 5126,
      "count": 14998,
      "max": [
        0.14270299673080444,
        0.14270299673080444,
        0.36082398891448975
      ],
      "min": [
        -0.14270299673080444,
        -0.14270299673080444,
        -0.2970159947872162
      ],
      "type": "VEC3"
    },
    {
      "bufferView": 2,
      "byteOffset": 2724672,
      "componentType": 5126,
      "count": 14998,
      "max": [
        1.0,
        1.0,
        0.9994838833808899
      ],
      "min": [
        -1.0,
        -1.0,
        -0.9293085336685181
      ],
      "type": "VEC3"
    },
    {
      "bufferView": 1,
      "byteOffset": 848232,
      "componentType": 5126,
      "count": 14998,
      "max": [
        0.7715319991111755,
        0.7726849913597107
      ],
      "min": [
        0.07041800022125244,
        0.07041800022125244
      ],
      "type": "VEC2"
    },
    {
      "bufferView": 0,
      "byteOffset": 2311740,
      "componentType": 5125,
      "count": 81741,
      "type": "SCALAR"
    },
    {
      "bufferView": 2,
      "byteOffset": 2904648,
      "componentType": 5126,
      "count": 1572,
      "max": [
        0.11189799755811691,
        0.11189799755811691,
        0.2859880030155182
      ],
      "min": [
        -0.11189799755811691,
        -0.11189799755811691,
        0.22683799266815186
      ],
      "type": "VEC3"
    },
    {
      "bufferView": 2,
      "byteOffset": 2923512,
      "componentType": 5126,
      "count": 1572,
      "max": [
        0.99879390001297,
        0.99879390001297,
        1.0
      ],
      "min": [
        -0.99879390001297,
        -0.99879390001297,
        -1.0
      ],
      "type": "VEC3"
    },
    {
      "bufferView": 1,
      "byteOffset": 968216,
      "componentType": 5126,
      "count": 1572,
      "max": [
        1.0003169775009155,
        1.0
      ],
      "min": [
        -0.0003169999981764704,
        0.009999999776482582
      ],
      "type": "VEC2"
    },
    {
      "bufferView": 0,
      "byteOffset": 2638704,
      "componentType": 5125,
      "count": 3048,
      "type": "SCALAR"
    }
  ],
  "asset": {
    "extras": {
      "author": "Ideekay_012 (https://sketchfab.com/ideekay_012)",
      "license": "CC-BY-4.0 (http://creativecommons.org/licenses/by/4.0/)",
      "source": "https://sketchfab.com/3d-models/treatment-serum-dropper-bottle-99487445fdb94cd68f6183978e00ff4a",
      "title": "Treatment serum dropper bottle"
    },
    "generator": "Sketchfab-12.65.0",
    "version": "2.0"
  },
  "bufferViews": [
    {
      "buffer": 0,
      "byteLength": 2650896,
      "name": "floatBufferViews",
      "target": 34963
    },
    {
      "buffer": 0,
      "byteLength": 980792,
      "byteOffset": 2650896,
      "byteStride": 8,
      "name": "floatBufferViews",
      "target": 34962
    },
    {
      "buffer": 0,
      "byteLength": 2942376,
      "byteOffset": 3631688,
      "byteStride": 12,
      "name": "floatBufferViews",
      "target": 34962
    }
  ],
  "buffers": [
    {
      "byteLength": 6574064,
      "uri": "scene.bin"
    }
  ],
  "materials": [
    {
      "alphaMode": "BLEND",
      "doubleSided": true,
      "name": "Basic_glass",
      "pbrMetallicRoughness": {
        "baseColorFactor": [
          1.0,
          1.0,
          1.0,
          0.27531784105211315
        ],
        "metallicFactor": 0.7617316941186485,
        "roughnessFactor": 0.0
      }
    },
    {
      "alphaMode": "BLEND",
      "doubleSided": true,
      "name": "Dense_Glass",
      "pbrMetallicRoughness": {
        "baseColorFactor": [
          1.0,
          1.0,
          1.0,
          0.0
        ],
        "roughnessFactor": 0.6
      }
    },
    {
      "doubleSided": true,
      "name": "Elastic_Rubber",
      "pbrMetallicRoughness": {
        "metallicFactor": 0.0,
        "roughnessFactor": 0.06251178033550396
      }
    },
    {
      "doubleSided": true,
      "name": "None",
      "pbrMetallicRoughness": {
        "metallicFactor": 0.0,
        "roughnessFactor": 0.6
      }
    },
    {
      "alphaMode": "BLEND",
      "doubleSided": true,
      "name": "Realistic_Glass_01",
      "pbrMetallicRoughness": {
        "baseColorFactor": [
          1.0,
          1.0,
          1.0,
          0.0
        ],
        "metallicFactor": 0.0,
        "roughnessFactor": 0.6
      }
    },
    {
      "doubleSided": true,
      "name": "Rubber",
      "pbrMetallicRoughness": {
        "metallicFactor": 0.0,
        "roughnessFactor": 0.6
      }
    },
    {
      "doubleSided": true,
      "name": "Wall_paper",
      "pbrMetallicRoughness": {
        "metallicFactor": 0.0,
        "roughnessFactor": 0.6
      }
    }
  ],
  "meshes": [
    {
      "name": "Object_0",
      "primitives": [
        {
          "attributes": {
            "NORMAL": 1,
            "POSITION": 0,
            "TEXCOORD_0": 2
          },
          "indices": 3,
          "material": 4,
          "mode": 4
        }
      ]
    },
    {
      "name": "Object_1",
      "primitives": [
        {
          "attributes": {
            "NORMAL": 5,
            "POSITION": 4,
            "TEXCOORD_0": 6
          },
          "indices": 7,
          "material": 6,
          "mode": 4
        }
      ]
    },
    {
      "name": "Object_2",
      "primitives": [
        {
          "attributes": {
            "NORMAL": 9,
            "POSITION": 8,
            "TEXCOORD_0": 10
          },
          "indices": 11,
          "material": 5,
          "mode": 4
        }
      ]
    },
    {
      "name": "Object_3",
      "primitives": [
        {
          "attributes": {
            "NORMAL": 13,
            "POSITION": 12,
            "TEXCOORD_0": 14
          },
          "indices": 15,
          "material": 2,
          "mode": 4
        }
      ]
    },
    {
      "name": "Object_4",
      "primitives": [
        {
          "attributes": {
            "NORMAL": 17,
            "POSITION": 16,
            "TEXCOORD_0": 18
          },
          "indices": 19,
          "material": 1,
          "mode": 4
        }
      ]
    },
    {
      "name": "Object_5",
      "primitives": [
        {
          "attributes": {
            "NORMAL": 21,
            "POSITION": 20,
            "TEXCOORD_0": 22
          },
          "indices": 23,
          "material": 0,
          "mode": 4
        }
      ]
    },
    {
      "name": "Object_6",
      "primitives": [
        {
          "attributes": {
            "NORMAL": 25,
            "POSITION": 24,
            "TEXCOORD_0": 26
          },
          "indices": 27,
          "material": 0,
          "mode": 4
        }
      ]
    },
    {
      "name": "Object_7",
      "primitives": [
        {
          "attributes": {
            "NORMAL": 29,
            "POSITION": 28,
            "TEXCOORD_0": 30
          },
          "indices": 31,
          "material": 0,
          "mode": 4
        }
      ]
    },
    {
      "name": "Object_8",
      "primitives": [
        {
          "attributes": {
            "NORMAL": 33,
            "POSITION": 32,
            "TEXCOORD_0": 34
          },
          "indices": 35,
          "material": 3,
          "mode": 4
        }
      ]
    }
  ],
  "nodes": [
    {
      "children": [
        1
      ],
      "matrix": [
        1.0,
        0.0,
        0.0,
        0.0,
        0.0,
        2.220446049250313e-16,
        -1.0,
        0.0,
        0.0,
        1.0,
        2.220446049250313e-16,
        0.0,
        0.0,
        0.0,
        0.0,
        1.0
      ],
      "name": "Sketchfab_model"
    },
    {
      "children": [
        2,
        3,
        4,
        5,
        6,
        7,
        8,
        9,
        10
      ],
      "name": "BHA.obj.cleaner.materialmerger.gles"
    },
    {
      "mesh": 0,
      "name": "Object_2"
    },
    {
      "mesh": 1,
      "name": "Object_3"
    },
    {
      "mesh": 2,
      "name": "Object_4"
    },
    {
      "mesh": 3,
      "name": "Object_5"
    },
    {
      "mesh": 4,
      "name": "Object_6"
    },
    {
      "mesh": 5,
      "name": "Object_7"
    },
    {
      "mesh": 6,
      "name": "Object_8"
    },
    {
      "mesh": 7,
      "name": "Object_9"
    },
    {
      "mesh": 8,
      "name": "Object_10"
    }
  ],
  "scene": 0,
  "scenes": [
    {
      "name": "Sketchfab_Scene",
      "nodes": [
        0
      ]
    }
  ]
}
